<svg xmlns="http://www.w3.org/2000/svg" width="20" height="21" viewBox="0 0 20 21">
    <g fill="#8C9095" fill-rule="evenodd" transform="translate(.15 .38)">
        <path fill-rule="nonzero" d="M9.93 19.518c5.287 0 9.574-4.29 9.574-9.582 0-5.291-4.287-9.581-9.575-9.581C4.641.355.355 4.645.355 9.936c0 5.292 4.286 9.582 9.574 9.582zm0 .355C4.444 19.873 0 15.424 0 9.936 0 4.45 4.445 0 9.93 0c5.483 0 9.928 4.449 9.928 9.936 0 5.488-4.445 9.937-9.929 9.937z"/>
        <path d="M16.312 11c0 3.137-2.858 5.679-6.383 5.679S3.546 14.137 3.546 11h12.766z"/>
        <ellipse cx="6.206" cy="6.92" rx="1.241" ry="1.597"/>
        <ellipse cx="13.653" cy="6.92" rx="1.241" ry="1.597"/>
    </g>
</svg>
