<svg xmlns="http://www.w3.org/2000/svg" width="20" height="21" viewBox="0 0 20 21">
    <g fill="#8C9095" fill-rule="evenodd">
        <path d="M9.253 9.607H5a.71.71 0 0 0 0 1.42h4.254v4.612c0 .391.318.71.71.71.394 0 .708-.317.708-.71v-4.612h4.61a.71.71 0 0 0 0-1.42h-4.61V5.35a.708.708 0 1 0-1.418 0v4.257z"/>
        <path fill-rule="nonzero" d="M9.962 19.898c5.288 0 9.575-4.29 9.575-9.581 0-5.292-4.287-9.582-9.575-9.582-5.288 0-9.574 4.29-9.574 9.582 0 5.292 4.286 9.581 9.574 9.581zm0 .355c-5.483 0-9.929-4.448-9.929-9.936C.033 4.829 4.48.38 9.963.38c5.483 0 9.928 4.448 9.928 9.936 0 5.488-4.445 9.936-9.929 9.936z"/>
    </g>
</svg>
