<svg xmlns="http://www.w3.org/2000/svg" width="13" height="13" viewBox="0 0 13 13">
    <path fill="#FFF" fill-rule="evenodd" d="M7.994 7.51c-.042-.074-.002-.388 0-.317a.882.882 0 0 1 .635-.635c-.141-.178-.096-.224 0 0-.037-.283-.024-.295 0 0 .564-.914.925-1.768.954-2.86C9.554 2.009 8.215.523 6.722.523 4.91.522 3.57 2.008 3.542 3.7c.029 1.091.39 1.945.954 2.859.025-.295.037-.283 0 0 .097-.224.142-.178 0 0 .434.122.59.453.636.635.001-.071.042.243 0 .318C4.154 9.13.952 9.716.68 11.005c-.01.26-.06 1.228.318 1.27.34-.042 5.565.012 5.724 0-.16.012 5.066-.042 5.405 0 .378-.042.328-1.01.318-1.27-.27-1.289-3.473-1.873-4.451-3.494z"/>
</svg>
