<svg xmlns="http://www.w3.org/2000/svg" width="21" height="21" viewBox="0 0 21 21">
    <g fill="#8C9095" fill-rule="evenodd">
        <path fill-rule="nonzero" d="M10.574 20.176a9.643 9.643 0 1 0 0-19.286 9.643 9.643 0 0 0 0 19.286zm0 .357c-5.523 0-10-4.477-10-10s4.477-10 10-10 10 4.477 10 10-4.477 10-10 10z"/>
        <path d="M7.509 12.23L5.93 10.653 7.453 9.13c.385.415.621.97.621 1.58 0 .581-.213 1.112-.565 1.52zM8.52 13.242l1.011 1.01a5.16 5.16 0 0 0 1.4-3.54c0-1.4-.555-2.67-1.457-3.602l-1.01 1.01a3.737 3.737 0 0 1 1.039 2.592c0 .975-.372 1.863-.982 2.53z"/>
        <path d="M10.795 15.516l.885.885a8.19 8.19 0 0 0 2.466-5.868 8.188 8.188 0 0 0-2.347-5.748l-1.062 1.062a6.942 6.942 0 0 1 1.98 4.865 6.94 6.94 0 0 1-1.922 4.804z"/>
    </g>
</svg>
