<svg xmlns="http://www.w3.org/2000/svg" width="17" height="10" viewBox="0 0 17 10">
    <g fill="none" fill-rule="evenodd" transform="translate(.83 .476)">
        <rect width="15.666" height="9.405" fill="#A9BFD4" rx=".784"/>
        <path fill="#FFF" d="M5.763 5.295a.45.45 0 0 1 .296-.508c-.066-.095-.045-.12 0 0-.017-.15-.011-.157 0 0 .263-.487.431-.943.445-1.525-.014-.902-.638-1.694-1.334-1.694-.845 0-1.469.792-1.482 1.694.013.582.181 1.038.444 1.525.012-.157.018-.15 0 0 .045-.12.066-.095 0 0a.45.45 0 0 1 .297.508c-.456.865-1.95 1.177-2.075 1.864-.005.14-.028.655.148.678.158-.023 2.594.006 2.668 0-.074.006 2.361-.023 2.52 0 .176-.023.152-.539.148-.678-.127-.687-1.62-.999-2.075-1.864z"/>
        <path stroke="#FFF" stroke-linecap="round" stroke-linejoin="round" stroke-width=".784" d="M9.792 2.743h3.133M9.792 4.31h1.566"/>
    </g>
</svg>
