<svg xmlns="http://www.w3.org/2000/svg" width="16" height="14" viewBox="0 0 16 14">
    <g fill="none" fill-rule="evenodd">
        <path fill="#A9BFD4" d="M12.105 10.422a5.091 5.091 0 0 0 2.976-4.635 5.102 5.102 0 0 0-5.1-5.095H5.298A5.093 5.093 0 0 0 .2 5.787a5.102 5.102 0 0 0 5.1 5.095h2.638v2.746s2.497-1.742 4.168-3.206z"/>
        <g fill="#FFF">
            <path d="M4.28 4.567c.116-.408.552-.74 1.002-.74h3.636c.438 0 .793.348.793.793v2.333a.785.785 0 0 1-.793.793H5.282c-.438 0-.895-.33-1.006-.758L4.19 6.57c-.042-.432-.058-1.142 0-1.566l.09-.437z"/>
            <path stroke="#FFF" stroke-linecap="round" stroke-linejoin="round" stroke-width=".784" d="M10.456 5.083l.003 1.34 1.472.61.017-2.493z"/>
        </g>
    </g>
</svg>
