<svg xmlns="http://www.w3.org/2000/svg" width="18" height="15" viewBox="0 0 18 15">
    <g fill="none" fill-rule="evenodd">
        <path stroke="#ABABAB" d="M10.824 1.229c.557 0 1.306.345 1.664.76l.593.689c.362.42 1.11.765 1.65.77l.708.008a2.026 2.026 0 0 1 2.006 2.017v6.492a2 2 0 0 1-2.002 1.997H2.983A2 2 0 0 1 .98 11.965V5.474c0-1.103.9-1.999 2-2.001l1.142-.003c.555-.001 1.292-.352 1.638-.773L6.334 2c.35-.425 1.082-.77 1.641-.77h2.85z"/>
        <path fill="#ABABAB" d="M9.369 12.464c-2.153 0-3.898-1.76-3.898-3.932 0-2.172 1.745-3.933 3.898-3.933s3.898 1.76 3.898 3.933c0 2.172-1.745 3.932-3.898 3.932zm0-.749c1.743 0 3.156-1.425 3.156-3.183 0-1.758-1.413-3.184-3.156-3.184S6.213 6.774 6.213 8.532c0 1.758 1.413 3.183 3.156 3.183zm5.089-5.137a.746.746 0 0 1-.743-.749c0-.413.332-.749.743-.749.41 0 .742.336.742.75a.746.746 0 0 1-.742.748z"/>
        <path stroke="#ABABAB" stroke-linecap="square" d="M2.477 1.686H3.6"/>
    </g>
</svg>
