<svg xmlns="http://www.w3.org/2000/svg" width="19" height="13" viewBox="0 0 19 13">
    <g fill="none" fill-rule="evenodd" transform="translate(.365 .545)">
        <rect width="17" height="11" x=".5" y=".5" stroke="#ABABAB" rx="1"/>
        <path fill="#ABABAB" d="M9.217 7.41A1.204 1.204 0 1 1 9.218 5a1.204 1.204 0 0 1 0 2.409zm0-.402a.803.803 0 1 0 0-1.606.803.803 0 0 0 0 1.606zm4.014.402a1.204 1.204 0 1 1 0-2.409 1.204 1.204 0 0 1 0 2.409zm0-.402a.803.803 0 1 0-.001-1.606.803.803 0 0 0 0 1.606zm-8.027.402A1.204 1.204 0 1 1 5.205 5a1.204 1.204 0 0 1-.001 2.409zm0-.402a.803.803 0 1 0 0-1.606.803.803 0 0 0 0 1.606z"/>
    </g>
</svg>
