<svg xmlns="http://www.w3.org/2000/svg" width="19" height="17" viewBox="0 0 19 17">
    <g fill="none" fill-rule="evenodd">
        <path stroke="#A8A8A8" d="M1.055 3.043c.198-.883 1.115-1.778 2-1.944.1-.026.227-.056.42-.097C3.804.933 4.2.864 4.662.8 5.992.612 7.583.5 9.434.5c1.85 0 3.47.114 4.846.305.48.066.893.137 1.24.207.205.042.34.074.403.09.922.182 1.848 1.079 2.032 1.952.077.231.174.619.273 1.245.17 1.066.272 2.412.272 4.058 0 1.647-.107 3.05-.285 4.21-.062.404-.128.747-.193 1.03a5.245 5.245 0 0 1-.081.32c-.201.919-1.118 1.823-1.987 1.987-.1.026-.222.056-.411.097-.322.068-.71.137-1.167.202-1.314.185-2.9.297-4.761.297-1.861 0-3.493-.115-4.883-.306a20.605 20.605 0 0 1-1.253-.209 8.187 8.187 0 0 1-.409-.09c-.913-.18-1.818-1.074-1.992-1.954a8.581 8.581 0 0 1-.094-.387 16.097 16.097 0 0 1-.196-1.066A27.8 27.8 0 0 1 .5 8.338c0-1.58.104-2.91.277-4 .103-.643.203-1.058.265-1.25l.013-.045z"/>
        <text fill="#A8A8A8" font-family="BonnLightBeta, Bonn Light Beta" font-size="9" letter-spacing="1.7">
            <tspan x="4.922" y="12">GI</tspan> <tspan x="12.336" y="12">F</tspan>
        </text>
    </g>
</svg>
