<svg xmlns="http://www.w3.org/2000/svg" width="15" height="16" viewBox="0 0 15 16">
    <g fill="none" fill-rule="evenodd">
        <path stroke="#0084FF" d="M4.778 6.892l2.123-2.894V1.279s.844-.088 1.225.062c1.412.558.947 4.103.947 4.103h4.042c.302 0 1.049.735 1.037 1.23-.012.494-.383.894-.383 1.106 0 .212.397.367.395.962-.002.596-.833.978-.833 1.298 0 .267.39.587.188 1.118-.2.53-.802.502-.949.86-.147.359-.033.27-.137.81-.103.54-.385 1.03-.68 1.03H4.842l-.064-6.966z"/>
        <path fill="#0084FF" d="M.65 6.895h3.118v8.321H.65V6.895zm.693.693v6.935h1.732V7.588H1.343z"/>
    </g>
</svg>
