<svg xmlns="http://www.w3.org/2000/svg" width="16" height="16" viewBox="0 0 16 16">
    <g fill="none" fill-rule="evenodd" stroke="#ABABAB">
        <path d="M7.428 1.35l6.71 1.181s.757.091.945.454c.188.362.107.638.107.638l-1.402 9.405s-.157 1.091-.515 1.27c-.359.18-1.432-.032-1.432-.032l-6.638-1.132s-.677-.115-.826-.387c-.149-.273 0-1.149 0-1.149L5.8 2.354s.075-.496.408-.8c.332-.305 1.22-.204 1.22-.204z"/>
        <path d="M6.104 10.205l6.182 1.167-.76-4.283-1.894 2.433L8.23 8.05z"/>
        <path d="M4.72 3.085l-2.597.25s-.518.02-.924.355C.793 4.025.956 4.798.956 4.798l1.41 9.3s.09.836.45 1.048c.36.213 1.176.055 1.176.055l3.43-.613M9.109 4.988c0-.53-.314-.867-.866-.867-.553 0-.867.517-.867.867s.347.866.867.866c.519 0 .866-.338.866-.866z"/>
    </g>
</svg>
