<svg xmlns="http://www.w3.org/2000/svg" width="21" height="13" viewBox="0 0 21 13">
    <g fill="none" fill-rule="evenodd" stroke="#ABABAB">
        <path d="M1.204 11.727L6.11.273l4.906 11.454M3.453 6.773h5.683M13.263 4.343s.761-2.027 3.075-2.025c2.314.002 3.057 1.919 3.057 2.347v.841c.003 1.813 0 4.407 0 4.407s-.18 1.757 1.187 1.757"/>
        <path d="M19.41 5.59s-.308.783-.952 1.039c-.645.255-2.599.177-3.371.177-1.205 0-2.233 1.122-2.233 2.327 0 1.205.472 2.008 1.48 2.365.48.17 1.293.479 2.991-.115.535-.188 2.086-1.257 2.086-1.99"/>
    </g>
</svg>
