<svg xmlns="http://www.w3.org/2000/svg" width="14" height="15" viewBox="0 0 14 15">
    <g fill="none" fill-rule="evenodd" stroke="#747476">
        <path d="M8.6 2.5h4.397c.278 0 .503.224.503.499V14a.496.496 0 0 1-.496.499H3.996a.496.496 0 0 1-.496-.503v-3.003L8.6 2.5z"/>
        <path d="M1.32 1.7v5.32s.822 1.93 2.305 1.99c1.483.058 2.548-2.192 2.548-2.192V2.137S5.654 1.01 4.7 1.01c-.953 0-1.187.973-1.187.973L3.49 6.928"/>
        <path stroke-linecap="square" d="M7.5 6.5h3M7.5 8.5h3M6.5 10.5h4"/>
    </g>
</svg>
