<svg xmlns="http://www.w3.org/2000/svg" width="17" height="14" viewBox="0 0 17 14">
    <g fill="none" fill-rule="evenodd" stroke="#6F7072">
        <path d="M3.16 12.25l-.306.048a.5.5 0 0 1-.575-.41L.869 2.99a.497.497 0 0 1 .415-.568L12.152.701a.5.5 0 0 1 .57.413l.055.35L3.161 12.25z"/>
        <rect width="12" height="10" x="4.5" y="3.5" rx="1"/>
        <circle cx="9.5" cy="6.5" r="1.5"/>
        <path d="M4.72 12.402L7.27 9.824a.5.5 0 0 1 .711-.012l1.436 1.414c.195.192.519.187.706.003l2.37-2.32a.498.498 0 0 1 .7.006l3.283 3.315"/>
    </g>
</svg>
