<svg xmlns="http://www.w3.org/2000/svg" xmlns:xlink="http://www.w3.org/1999/xlink" width="15" height="14" viewBox="0 0 15 14">
    <defs>
        <path id="a" d="M.002 13.964h14.442V.001H.002z"/>
    </defs>
    <g fill="none" fill-rule="evenodd">
        <mask id="b" fill="#fff">
            <use xlink:href="#a"/>
        </mask>
        <path fill="#757577" d="M12.33 2.045A7.302 7.302 0 0 0 7.221 0C5.293 0 3.48.726 2.115 2.045.751 3.364 0 5.117 0 6.982c0 1.865.751 3.618 2.115 4.937a7.302 7.302 0 0 0 5.107 2.045c.975 0 1.921-.185 2.812-.549l-.348-.795c-.78.319-1.61.48-2.464.48-3.49 0-6.329-2.744-6.329-6.118S3.733.864 7.223.864c3.489 0 6.328 2.744 6.328 6.118 0 1.478-.94 2.15-1.812 2.15-.872 0-1.811-.672-1.811-2.15 0-1.442-1.214-2.615-2.706-2.615S4.517 5.54 4.517 6.982c0 1.442 1.213 2.615 2.705 2.615.883 0 1.67-.411 2.163-1.046.127.247.286.47.478.666a2.61 2.61 0 0 0 1.876.78 2.61 2.61 0 0 0 1.877-.78c.542-.552.828-1.324.828-2.235 0-1.865-.75-3.618-2.115-4.937zM7.221 8.734c-.999 0-1.812-.786-1.812-1.752S6.223 5.23 7.222 5.23c1 0 1.812.786 1.812 1.752s-.813 1.752-1.812 1.752z" mask="url(#b)"/>
    </g>
</svg>
