<svg xmlns="http://www.w3.org/2000/svg" width="20" height="15" viewBox="0 0 20 15">
    <g fill="#1DA1F2" fill-rule="evenodd">
        <path d="M15.465 5.733V4.03c0-.423.337-.766.76-.766.42 0 .76.347.76.766v1.703h1.702c.424 0 .767.337.767.76 0 .42-.348.76-.767.76h-1.702v1.702a.761.761 0 0 1-.76.767.766.766 0 0 1-.76-.767V7.253h-1.703a.761.761 0 0 1-.766-.76c0-.42.347-.76.766-.76h1.703zM9.573 10.931c3.01.417 4.182 1.5 4.182 1.5v1.92H.455v-1.92s1.123-1.038 3.994-1.472c.66.679 1.503 1.209 2.524 1.209 1.035 0 1.908-.544 2.6-1.237z"/>
        <path stroke="#FFF" stroke-width=".784" d="M6.983.932C3.81.932 3.81 4.746 3.81 4.746c-.216 0-.378.355-.33.785 0 0-.061.621.33.621.446.575 1.785 4.167 3.173 4.167 1.388 0 2.941-3.613 3.31-4.167.393 0 .332-.62.332-.62.034-.434-.296-.786-.333-.786 0 0-.136-3.814-3.309-3.814z"/>
    </g>
</svg>
