<svg xmlns="http://www.w3.org/2000/svg" width="17" height="18" viewBox="0 0 17 18">
    <g fill="#1DA1F2" fill-rule="evenodd" transform="translate(.344 .54)">
        <rect width="8.128" height="1.552" x="6.688" y="14.356" rx=".776"/>
        <rect width="1.478" height="8.536" x=".037" y="2.716" rx=".739"/>
        <rect width="1.478" height="5.432" x="13.338" y="10.476" rx=".739"/>
        <rect width="5.911" height="1.552" y="2.716" rx=".776"/>
        <path d="M1.705 17.417c0-.337-.125-4.212 5.016-10.403C11.86.824 15.73.241 15.73.241c-.24 1.838-3.428 3.824-3.428 3.824 0 .537 2.206-.247 2.206-.247-.456 1.936-4.456 3.56-4.456 3.56-.823.635 2.25 0 2.25 0-.4 1.637-5 2.785-5 2.785-2.719 1.99-5.598 7.592-5.598 7.254z"/>
    </g>
</svg>
