<svg xmlns="http://www.w3.org/2000/svg" width="20" height="18" viewBox="0 0 20 18">
    <g fill="#55ACEE" fill-rule="evenodd" transform="translate(-.673 .765)">
        <path d="M2.72 10.154l-.768.767a.71.71 0 0 1-1.006.007.71.71 0 0 1 .007-1.006l6.24-6.24a.706.706 0 0 1 .98-.95.706.706 0 1 1 .98.95l6.241 6.24a.71.71 0 0 1 .007 1.006.71.71 0 0 1-1.006-.007l-.823-.823-1.691 7.085H4.394l-1.674-7.03zm5.454.924c.976 0 1.767-.854 1.767-1.908 0-1.053-.791-1.908-1.767-1.908-.976 0-1.767.855-1.767 1.908 0 1.054.79 1.908 1.767 1.908zm0 3.052c.39 0 .706-.341.706-.763 0-.421-.316-.763-.706-.763-.39 0-.707.342-.707.763 0 .422.316.763.707.763z"/>
        <ellipse cx="17.568" cy="2.301" rx="2.143" ry="2.301"/>
    </g>
</svg>
