<svg xmlns="http://www.w3.org/2000/svg" width="15" height="16" viewBox="0 0 15 16">
    <g fill="#8899A6" fill-rule="evenodd">
        <path d="M4.974 11.602c-3.288.465-4.568 1.676-4.568 1.676v2.144h14.528v-2.144s-1.227-1.16-4.363-1.646c-.722.76-1.642 1.35-2.757 1.35-1.13 0-2.084-.607-2.84-1.38zM7.803.434c3.466 0 3.466 4.26 3.466 4.26.236 0 .415.348.374.785 0 0 .054.785-.374.785-.488.642-1.95 4.654-3.466 4.654-1.516 0-3.212-4.036-3.614-4.654-.43 0-.377-.785-.377-.785-.03-.434.294-.785.377-.785 0 0 .148-4.26 3.614-4.26z"/>
    </g>
</svg>
