<svg xmlns="http://www.w3.org/2000/svg" width="13" height="14" viewBox="0 0 13 14">
    <g fill="#8899A6" fill-rule="evenodd">
        <path d="M7.83 1.336h-.046c-1.684 0-3.163.837-4.008 2.1l-.061-.027c-.042.113-.084.224-.128.334a4.418 4.418 0 0 0-.341.777C2.18 6.733.756 8.017.756 8.017c-.591.63-.412 1.38.405 1.678l8.984 3.27c.815.297 1.404-.163 1.354-1.034 0 0-.307-1.784.276-3.568a4.39 4.39 0 0 0 .765-2.477c0-1.504-.763-2.838-1.939-3.667.07-.164.11-.344.11-.533 0-.773-.655-1.4-1.464-1.4-.682 0-1.255.446-1.417 1.05zM2.86 11.427a2.042 2.042 0 0 0-.003.11c0 1.16.983 2.1 2.195 2.1.608 0 1.159-.236 1.557-.619l-3.75-1.59z"/>
    </g>
</svg>
