<svg xmlns="http://www.w3.org/2000/svg" width="16" height="10" viewBox="0 0 16 10">
    <path fill="#B0C0C9" fill-rule="evenodd" d="M12.402.877c.454.163.776.598.776 1.11V5.56h1.16c.872 0 1.092.514.506 1.15l-2.33 2.524a.705.705 0 0 1-1.057 0l-2.33-2.525c-.58-.628-.36-1.15.506-1.15h1.202V3.144H8.12a1.173 1.173 0 0 1-1.167-1.171c0-.651.523-1.171 1.167-1.171h3.869c.145 0 .284.027.413.076zM3.065 9.403a1.175 1.175 0 0 1-.776-1.11V4.722H1.13c-.872 0-1.092-.515-.506-1.15l2.33-2.524a.705.705 0 0 1 1.057 0L6.34 3.57c.58.629.36 1.15-.506 1.15H4.632v2.416h2.715c.638 0 1.167.525 1.167 1.172 0 .651-.523 1.17-1.167 1.17H3.478a1.15 1.15 0 0 1-.413-.076z"/>
</svg>
