<svg xmlns="http://www.w3.org/2000/svg" width="15" height="16" viewBox="0 0 15 16">
    <path fill="#8899A6" fill-rule="evenodd" d="M9.961 9.881c.37.193.649.68.649.68.114-.123 1.01-.123 1.562.472l2.005 2.16c.553.594.553 1.56 0 2.155a1.347 1.347 0 0 1-2.003 0l-2.005-2.158c-.553-.595-.734-1.365-.404-1.72 0 0-.464-.284-.654-.67a5.06 5.06 0 0 1-3.313 1.247c-2.934 0-5.312-2.56-5.312-5.718 0-3.159 2.378-5.72 5.312-5.72s5.313 2.561 5.313 5.72c0 1.342-.43 2.577-1.15 3.552zm-4.163.641c2.152 0 3.896-1.877 3.896-4.193 0-2.317-1.744-4.194-3.896-4.194-2.151 0-3.896 1.877-3.896 4.194 0 2.316 1.745 4.193 3.896 4.193z"/>
</svg>
