<svg xmlns="http://www.w3.org/2000/svg" width="18" height="16" viewBox="0 0 18 16">
    <path fill="#1DA1F2" fill-rule="evenodd" d="M1.88 9.264a3.341 3.341 0 0 0 1.722-.122C1.92 8.859.634 7.312.634 5.446l.001-.087a3.35 3.35 0 0 0 1.683.486C1.308 5.187.634 4.003.634 2.652c0-.701.182-1.358.498-1.919C2.923 3.01 5.55 4.516 8.513 4.721a4.087 4.087 0 0 1-.083-.822c0-2.121 1.62-3.841 3.616-3.841 1.044 0 1.984.47 2.644 1.22a5.504 5.504 0 0 0 2.245-.926 3.601 3.601 0 0 1-1.539 2.098c.72-.072 1.4-.28 2.025-.591a6.221 6.221 0 0 1-1.76 1.956l.002.084-.002.438c0 5.993-4.573 10.851-10.215 10.851a9.742 9.742 0 0 1-5.563-1.75c.284.036.574.054.867.054 1.7 0 3.266-.605 4.519-1.623-1.605 0-2.936-1.094-3.39-2.605z"/>
</svg>
