<?xml version="1.0" encoding="UTF-8" standalone="no"?>
<svg width="9px" height="8px" viewBox="0 0 9 8" version="1.1" xmlns="http://www.w3.org/2000/svg" xmlns:xlink="http://www.w3.org/1999/xlink">
    <!-- Generator: Sketch 43.2 (39069) - http://www.bohemiancoding.com/sketch -->
    <title>Group 7</title>
    <desc>Created with Sketch.</desc>
    <defs></defs>
    <g id="Page-1" stroke="none" stroke-width="1" fill="none" fill-rule="evenodd">
        <g id="Group-7" fill="#9197A3">
            <path d="M5.10009766,0.100097656 C6.82532487,0.544140449 8.10009766,2.11024074 8.10009766,3.97408017 C8.10009766,5.8379196 6.82532487,7.40401989 5.10009766,7.84806269 L5.10009766,0.100097656 Z" id="Combined-Shape"></path>
            <path d="M7.10625433,2.82629024 L7.17747885,2.87533228 L7.24337817,2.87533228 L7.24337817,2.75132291 L7.4521703,2.73187893 L7.65053391,2.87533228 L7.97648038,2.87533228 L8,2.85502412 C7.9669394,2.74873038 7.92966301,2.64330081 7.88905838,2.54024772 L7.67671613,2.54370443 L7.56910276,2.42963309 L7.54913327,2.24664365 L7.43996672,2.30389536 L7.38116766,2.52858133 L7.22340868,2.36481983 L7.21719595,2.21034823 L7.06476217,2.08288215 L7.00840383,2.02800692 L6.83156289,2.02800692 L6.8870337,2.18161435 L7.10026349,2.29719799 L7.13665234,2.33522177 L7.09072251,2.35790641 L7.09338511,2.4795393 L6.98932187,2.52166792 L6.90101234,2.50222394 L6.84554153,2.42639243 L6.98932187,2.43395397 L7.02837332,2.38253545 L6.70930523,2.17318862 L6.68511996,2.0846105 L6.55598391,2.19846579 L6.42418527,2.17232445 L6.22493413,2.42466407 L6.18499515,2.52426045 L6.05763417,2.5352787 L5.86858965,2.53614288 L5.75520732,2.48450832 L5.72214672,2.26608763 L5.76297324,2.16217037 L5.955346,2.12090593 L6.16502566,2.16217037 L6.19009846,2.04917925 L6.10178893,2.0288711 L6.13218694,1.85257903 L6.34275413,1.82038844 L6.49097213,1.61709085 L6.64340591,1.59246181 L6.7811954,1.61190579 L6.83156289,1.61190579 L6.80382749,1.4213548 L6.63652753,1.48703224 L6.57772847,1.34444307 L6.48054361,1.33104833 L6.46234919,1.23382843 L6.54111774,1.1495712 L6.72927472,1.07784452 L6.77786715,0.993371238 C6.0585217,0.375700866 5.11551796,0 4.08220774,0 C3.18690889,0 2.35839689,0.28280186 1.68409375,0.761339766 L1.89044515,0.759611412 L1.98141728,0.809301579 L2.15470808,0.845597005 L2.1677992,0.911490486 L2.44337817,0.921644563 L2.40610179,0.835658971 L2.16158647,0.828745557 L2.21883234,0.77646286 L2.19886285,0.713161909 L1.97786715,0.713161909 L2.21883234,0.538598194 L2.44936902,0.538598194 L2.55853557,0.683563853 L2.73803911,0.693717931 L2.84631813,0.590880891 L2.92774927,0.63041698 L2.77864374,0.773222197 C2.77864374,0.773222197 2.57162668,0.77646286 2.58205519,0.77646286 C2.59248371,0.77646286 2.59936209,0.914947193 2.59936209,0.914947193 L2.84986826,0.908249823 L2.87671613,0.842356342 L3.05000693,0.832202264 L3.06997642,0.733470064 L2.96857579,0.716618616 L3.00230204,0.627176317 L3.08040494,0.604275632 L3.35154625,0.617886416 L3.2026626,0.749457335 L3.22596034,0.851646242 L3.38194425,0.87519506 L3.37240327,0.690477268 L3.52150881,0.614429709 L3.78577174,0.584183521 L4.16985162,0.749457335 L4.16985162,0.892046508 L4.29122174,0.921644563 L4.23042574,1.03398755 L4.05713493,1.03398755 L4.00610179,1.16210176 L3.61070587,1.07179528 L3.92200804,0.910626309 L3.80330051,0.812758286 L3.53548745,0.845597005 L3.51196783,0.869361867 L3.51108029,0.869361867 L3.50686451,0.874330883 L3.42964915,0.952970973 L3.30228817,0.962909006 L3.31271668,1.02469765 L3.35687145,1.04327745 L3.35509638,1.06336956 L3.25103314,1.07784452 L3.24326723,1.13596041 L3.14452919,1.14114547 L3.12633477,1.02469765 L2.9486063,1.07784452 L2.58449591,1.28459882 L2.62532242,1.43042866 L2.72672306,1.49545796 L2.93041187,1.52246349 L2.93041187,1.74779759 L3.02493413,1.73353867 L3.11146859,1.55703056 L3.32736098,1.49048895 L3.32736098,1.22043369 L3.44784357,1.13185557 L3.73917626,1.19839719 L3.71831923,1.37728178 L3.79620025,1.37728178 L4.01031757,1.27530892 L4.02074608,1.50993292 L4.17673,1.60175171 L4.16985162,1.74110022 L4.02074608,1.79014225 L4.03117459,1.83637571 L4.21067813,1.91587998 L4.207128,2.01201965 L4.15520732,2.01612449 C4.15520732,2.01461218 4.15431979,2.013748 4.15431979,2.013748 L3.92711136,1.94526199 L3.91757038,1.87439949 L3.98435723,1.82967834 L3.98435723,1.76551321 L3.91246706,1.74779759 L3.89516017,1.80785788 L3.77023991,1.82643768 L3.75737068,1.8221168 L3.75737068,1.82881417 L3.71388157,1.8348634 L3.67838025,1.76551321 L3.63777562,1.74779759 L3.54924421,1.74779759 L3.5084177,1.78085235 L3.5084177,1.85257903 L3.58474553,1.87699202 L3.66018583,1.8871461 L3.64287893,1.89470765 L3.57431702,1.96902685 L3.5441409,1.93186725 L3.47735404,1.9150158 L3.29696297,2.08028962 L3.3204826,2.09886942 L3.05355707,2.24318694 L2.80216336,2.49725492 L2.78485647,2.61111022 L2.53346277,2.77163106 L2.4085425,2.89391208 L2.42252115,3.13869016 L2.24923034,3.06005007 L2.25100541,2.91659672 L1.76907502,2.9174609 L1.51945639,3.03995796 L1.41095548,3.23482983 L1.36857579,3.38843726 L1.43869089,3.5377238 L1.63461378,3.56148866 L1.94746914,3.35797502 L1.97431702,3.45929975 L1.87912911,3.63407951 L2.11654417,3.6736156 L2.14072944,4.03160084 L2.46667591,4.08561189 L2.67302732,3.8525002 L2.92442102,3.90240641 L3.01273055,4.02144677 L3.25369574,4.00783598 L3.26057412,3.93870184 L3.3932603,4.00113861 L3.54236583,4.22906524 L3.79975038,4.23230591 L3.89516017,4.39433906 L3.9080294,4.59266763 L4.19314936,4.69809721 L4.55304396,4.70155391 L4.65866038,4.86942026 L4.81819443,4.91932647 L4.78690889,5.05845893 L4.61273055,5.27450313 L4.56169741,5.75304104 L4.40393843,5.87467393 L4.16985162,5.86797656 L4.09174872,5.99954747 L4.14988212,6.24756622 L3.89516017,6.56493515 L3.81372903,6.71011685 L3.57098877,6.82397215 L3.41145472,6.84773701 L3.40546387,6.91341445 L3.51729302,6.94474086 L3.50331438,7.01560335 L3.40368881,7.10936654 L3.46426293,7.18433388 L3.58474553,7.18779058 L3.57786715,7.27809706 L3.54569408,7.36753936 L3.53548745,7.44013021 L3.71388157,7.58617609 L3.69058383,7.66200761 L3.44784357,7.65790277 L3.20599085,7.45266077 L3.01716822,7.13032283 L3.04401609,6.81900313 L2.9009014,6.63406929 L2.95903481,6.32015707 L2.87405353,6.29660825 L2.87405353,5.61628506 C2.87405353,5.61628506 2.63663847,5.44172135 2.62265983,5.44172135 C2.6097906,5.44172135 2.49707391,5.41125911 2.49707391,5.41125911 L2.47355429,5.2831449 L2.1651366,4.90657986 L2.1955346,4.77068806 L2.20574123,4.54967484 L2.41897102,4.40449314 L2.3887949,4.15647439 L2.07660519,4.13357371 L1.83231175,3.86265428 L1.65902094,3.81620477 L1.54719179,3.79611266 L1.56094855,3.69738046 L1.41894328,3.67793649 L1.41894328,3.73367589 L1.06171127,3.64661008 L0.918818472,3.43315841 L0.976729996,3.33010532 L0.751518513,3.00949573 L0.712467064,2.77487172 L0.621494938,2.77487172 L0.651892941,3.00279836 L0.807876855,3.23742236 L0.790348079,3.32945719 L0.657883789,3.31001321 L0.495687145,3.03995796 L0.495687145,2.72518156 L0.325946471,2.64567729 L0.325946471,2.41969506 C0.116044931,2.89801692 0,3.4238685 0,3.97586144 C0,6.16741382 1.83142421,7.95064266 4.08309527,7.95064266 C5.35892387,7.95064266 6.5005131,7.37682926 7.24936902,6.48132604 L7.11490778,6.48132604 L7.11490778,6.21732003 L6.95892387,6.01294222 L6.95892387,5.69492515 L6.84021634,5.5793415 L6.82978782,5.44755454 L6.98066842,5.16648103 L6.6937734,4.67454839 L6.72749965,4.34032801 L6.4701151,4.31418666 L6.37470531,4.22128765 L6.20230204,4.22128765 L6.11399251,4.30079192 L5.80890306,4.30079192 L5.79847455,4.32779744 L5.628512,4.32779744 L5.23844127,3.89484486 L5.2419914,3.55803195 L5.30611566,3.53448314 L5.33030093,3.40615288 L5.23844127,3.40615288 L5.20116489,3.27026108 L5.65203162,2.95375632 L5.65203162,2.72842222 L5.87302732,2.60959791 L5.96222438,2.61802363 L6.14416863,2.61802363 L6.28639578,2.54370443 L6.7441409,2.50913736 L6.7441409,2.73684794 L7.10625433,2.82629024 Z M5.96133685,1.40860819 L5.99861323,1.35286879 L6.13218694,1.32586326 L6.16591319,1.48443971 L6.23780336,1.59678269 L6.28462072,1.64992957 L6.37137706,1.68276829 L6.28994592,1.77739565 L6.13218694,1.79165456 L6.01347941,1.79165456 L6.02723617,1.65511463 L6.12597421,1.63480647 L6.11732076,1.57064134 L6.0254611,1.51403776 L5.96133685,1.47190914 L5.96133685,1.40860819 Z M5.74034115,1.65662694 L5.82177229,1.5293769 L5.93182638,1.50474786 L6.01081681,1.53780263 L6.00305089,1.62292404 L5.83575094,1.73850769 L5.74034115,1.73850769 L5.74034115,1.65662694 Z M3.52239634,2.14531892 L3.43741506,2.15201629 L3.44185273,2.09476458 L3.48001664,2.04831507 L3.53104979,2.08785116 L3.52239634,2.14531892 Z M3.82060741,2.04399419 L3.762474,2.04831507 L3.75115795,2.1031903 L3.70611566,2.13019583 L3.63422549,2.13602902 C3.63156289,2.12004175 3.63067536,2.10729514 3.63067536,2.10729514 L3.60293995,2.10729514 L3.60293995,2.04831507 L3.7200943,2.04831507 L3.74339204,1.98847083 L3.7902094,1.98760665 L3.84301761,1.99754469 L3.82060741,2.04399419 Z" id="earth-globe-with-continents-maps"></path>
        </g>
    </g>
</svg>