<?xml version="1.0" encoding="UTF-8" standalone="no"?>
<svg width="10px" height="8px" viewBox="0 0 10 8" version="1.1" xmlns="http://www.w3.org/2000/svg" xmlns:xlink="http://www.w3.org/1999/xlink">
    <!-- Generator: Sketch 43.2 (39069) - http://www.bohemiancoding.com/sketch -->
    <title>Live icon</title>
    <desc>Created with Sketch.</desc>
    <defs></defs>
    <g id="Page-1" stroke="none" stroke-width="1" fill="none" fill-rule="evenodd">
        <g id="lookout---result" transform="translate(-372.000000, -320.000000)">
            <g id="1" transform="translate(330.000000, 164.000000)">
                <g id="facebook" transform="translate(9.436747, 50.449111)">
                    <g transform="translate(-2.051205, -1.899838)" id="Update-status">
                        <g transform="translate(1.000000, 51.549007)">
                            <g id="menu" transform="translate(34.000000, 52.000000)">
                                <g id="live" transform="translate(0.000000, 0.450993)">
                                    <g id="Live-icon" transform="translate(0.000000, 4.000000)">
                                        <rect id="Rectangle-26" fill="#FA3E3E" x="0" y="0" width="6.5" height="6.5" rx="1"></rect>
                                        <path d="M0.614457831,3.14599429 C0.614457831,3.14599429 1.64827103,1.45072698 3.1909391,1.45072698 C4.73360718,1.45072698 5.76742038,3.15068248 5.76742038,3.15068248 C5.76742038,3.15068248 4.65484951,4.8986377 3.1909391,4.8986377 C1.7270287,4.8986377 0.614457831,3.14599429 0.614457831,3.14599429 Z" id="Path-41" fill="#FFFFFF"></path>
                                        <circle id="Oval-8" fill="#FA3E3E" cx="3.21446393" cy="3.15073919" r="1"></circle>
                                        <path d="M7,2.35904 C7,2.07963235 7.20515212,1.77465938 7.46741267,1.67434774 L9.14704517,1.03190766 C9.40519005,0.933170213 9.61445783,1.07017205 9.61445783,1.35190002 L9.61445783,4.85435538 C9.61445783,5.12981972 9.40930571,5.27465938 9.14704517,5.17434774 L7.46741267,4.53190766 C7.20926778,4.43317021 7,4.12241481 7,3.84721539 L7,2.35904 Z" id="Rectangle-27" fill="#FA3E3E"></path>
                                    </g>
                                </g>
                            </g>
                        </g>
                    </g>
                </g>
            </g>
        </g>
    </g>
</svg>