<?xml version="1.0" encoding="UTF-8" standalone="no"?>
<svg width="10px" height="10px" viewBox="0 0 10 10" version="1.1" xmlns="http://www.w3.org/2000/svg" xmlns:xlink="http://www.w3.org/1999/xlink">
    <!-- Generator: Sketch 43.2 (39069) - http://www.bohemiancoding.com/sketch -->
    <title>Search Icon</title>
    <desc>Created with Sketch.</desc>
    <defs></defs>
    <g id="Page-1" stroke="none" stroke-width="1" fill="none" fill-rule="evenodd" opacity="0.7">
        <g id="lookout---result" transform="translate(-351.000000, -238.000000)" fill="#FFFFFF">
            <g id="1" transform="translate(330.000000, 164.000000)">
                <g id="facebook" transform="translate(9.436747, 50.449111)">
                    <g transform="translate(-2.051205, -1.899838)" id="Nav-bar">
                        <g transform="translate(2.000000, 1.425646)">
                            <g id="Search-+-Search-Icon" transform="translate(12.116619, 21.810338)">
                                <path d="M6.4148295,8.48479128 L9.26564955,11.3359345 L8.55290728,12.0487576 L5.70208723,9.19761435 C5.10645111,9.64511328 4.36604521,9.91028836 3.56371137,9.91028836 C1.59552793,9.91028836 0,8.31457957 0,6.34617302 C0,4.37776647 1.59552793,2.78205767 3.56371137,2.78205767 C5.53189481,2.78205767 7.12742273,4.37776647 7.12742273,6.34617302 C7.12742273,7.14859781 6.86227771,7.88908764 6.4148295,8.48479128 Z M3.56371137,9.1974653 C5.13825812,9.1974653 6.41468046,7.92089826 6.41468046,6.34617302 C6.41468046,4.77144778 5.13825812,3.49488074 3.56371137,3.49488074 C1.98916461,3.49488074 0.712742273,4.77144778 0.712742273,6.34617302 C0.712742273,7.92089826 1.98916461,9.1974653 3.56371137,9.1974653 Z" id="Search-Icon"></path>
                            </g>
                        </g>
                    </g>
                </g>
            </g>
        </g>
    </g>
</svg>