<svg xmlns="http://www.w3.org/2000/svg" width="285" height="9" viewBox="0 0 285 9">
    <g fill="#FFF" fill-rule="evenodd">
        <path d="M266.94.37h15.256a1.18 1.18 0 0 1 1.184 1.18v5.091c0 .645-.53 1.181-1.184 1.181h-15.257a1.18 1.18 0 0 1-1.184-1.18V1.55c0-.645.53-1.18 1.184-1.18zm16.831 2.353h.588c.315 0 .587.26.587.582v1.581a.58.58 0 0 1-.587.583h-.588V2.723zM266.937.762a.793.793 0 0 0-.79.79V6.64a.79.79 0 0 0 .79.791h15.261c.436 0 .79-.358.79-.791V1.553a.79.79 0 0 0-.79-.791h-15.261zm-.001.392h15.263c.217 0 .397.173.397.386v5.112a.39.39 0 0 1-.397.386h-15.263a.393.393 0 0 1-.397-.386V1.54a.39.39 0 0 1 .397-.386z"/>
        <text font-family=".SFNSText-Regular, .SF NS Text" font-size="9.405" transform="translate(-4.48 -3.945)">
            <tspan x="244.259" y="11.746">100%</tspan>
        </text>
        <text font-family=".SFNSText-Regular, .SF NS Text" font-size="9.405" transform="translate(-4.48 -3.945)">
            <tspan x="126.145" y="11.746">9:41 AM</tspan>
        </text>
        <path d="M37.147 5.813L35.485 7.43l-1.694-1.643a2.236 2.236 0 0 1 1.667-.735c.677 0 1.283.296 1.69.76zm1.707-1.661l-.853.83a3.457 3.457 0 0 0-2.543-1.1c-.998 0-1.896.414-2.521 1.076l-.854-.829a4.68 4.68 0 0 1 3.375-1.418c1.342 0 2.551.555 3.396 1.44zm1.705-1.659l-.853.83a5.9 5.9 0 0 0-4.248-1.783 5.901 5.901 0 0 0-4.229 1.761l-.853-.828A7.123 7.123 0 0 1 35.458.37c2.007 0 3.818.816 5.1 2.124zM2.765 6.253A2.156 2.156 0 0 1 .61 4.096c0-1.192.964-2.157 2.154-2.157s2.154.965 2.154 2.157a2.156 2.156 0 0 1-2.154 2.157zm5.483 0a2.156 2.156 0 0 1-2.154-2.157c0-1.192.964-2.157 2.154-2.157s2.154.965 2.154 2.157a2.156 2.156 0 0 1-2.154 2.157zm5.483 0a2.156 2.156 0 0 1-2.154-2.157c0-1.192.964-2.157 2.154-2.157s2.154.965 2.154 2.157a2.156 2.156 0 0 1-2.154 2.157zm5.483 0a2.156 2.156 0 0 1-2.154-2.157c0-1.192.964-2.157 2.154-2.157s2.154.965 2.154 2.157a2.156 2.156 0 0 1-2.154 2.157zm5.483 0a2.156 2.156 0 0 1-2.154-2.157c0-1.192.964-2.157 2.154-2.157s2.154.965 2.154 2.157a2.156 2.156 0 0 1-2.154 2.157z"/>
    </g>
</svg>
