<?xml version="1.0" encoding="UTF-8" standalone="no"?>
<svg width="285px" height="10px" viewBox="0 0 285 10" version="1.1" xmlns="http://www.w3.org/2000/svg" xmlns:xlink="http://www.w3.org/1999/xlink">
    <!-- Generator: Sketch 43.2 (39069) - http://www.bohemiancoding.com/sketch -->
    <title>Status Bar - Dark</title>
    <desc>Created with Sketch.</desc>
    <defs></defs>
    <g id="Page-1" stroke="none" stroke-width="1" fill="none" fill-rule="evenodd">
        <g id="lookout---result" transform="translate(-810.000000, -217.000000)" fill="#030303">
            <g id="2" transform="translate(796.000000, 164.000000)">
                <g id="Twitter" transform="translate(9.436747, 50.449111)">
                    <g transform="translate(-1.487952, -1.949919)" id="Status-Bar---Dark">
                        <g transform="translate(1.398818, 1.079755)">
                            <path d="M271.399676,4.31431913 L286.65517,4.31431913 C287.3114,4.31431913 287.838815,4.84297792 287.838815,5.49511159 L287.838815,10.5855324 C287.838815,11.230395 287.308879,11.7663249 286.65517,11.7663249 L271.399676,11.7663249 C270.743446,11.7663249 270.216031,11.2376661 270.216031,10.5855324 L270.216031,5.49511159 C270.216031,4.850249 270.745967,4.31431913 271.399676,4.31431913 Z M288.230433,6.66758411 L288.817859,6.66758411 C289.132797,6.66758411 289.405285,6.92826398 289.405285,7.24982891 L289.405285,8.83081511 C289.405285,9.15969325 289.142285,9.41305991 288.817859,9.41305991 L288.230433,9.41305991 L288.230433,6.66758411 Z M271.397268,4.70652996 C270.961173,4.70652996 270.607648,5.06500824 270.607648,5.49757257 L270.607648,10.5830715 C270.607648,11.0199522 270.959366,11.3741141 271.397268,11.3741141 L286.657578,11.3741141 C287.093673,11.3741141 287.447198,11.0156358 287.447198,10.5830715 L287.447198,5.49757257 C287.447198,5.0606918 287.09548,4.70652996 286.657578,4.70652996 L271.397268,4.70652996 Z M271.396165,5.09874079 L286.658681,5.09874079 C286.875261,5.09874079 287.05558,5.27156367 287.05558,5.48475151 L287.05558,10.5958925 C287.05558,10.8121763 286.877882,10.9819032 286.658681,10.9819032 L271.396165,10.9819032 C271.179586,10.9819032 270.999266,10.8090803 270.999266,10.5958925 L270.999266,5.48475151 C270.999266,5.26846768 271.176964,5.09874079 271.396165,5.09874079 Z" id="Battery"></path>
                            <text id="100%" font-family=".SFNSText-Regular, .SF NS Text" font-size="9.405" font-weight="normal">
                                <tspan x="244.239019" y="11.7454758">100%</tspan>
                            </text>
                            <text id="9:41-AM" font-family=".SFNSText-Regular, .SF NS Text" font-size="9.405" font-weight="normal">
                                <tspan x="128.64159" y="11.7454758">9:41 AM</tspan>
                            </text>
                            <path d="M41.6245636,9.7570322 L39.9626319,11.3741141 L38.2689852,9.73099989 C38.6744614,9.28083319 39.2706189,8.99646292 39.9352374,8.99646292 C40.6125778,8.99646292 41.2188113,9.29182406 41.6245636,9.7570322 Z M43.3312916,8.09636302 L43.3312916,8.09636302 L42.4784468,8.92619239 C41.8526492,8.25073138 40.9450782,7.82592697 39.9352374,7.82592697 C38.9374627,7.82592697 38.0395286,8.2406404 37.4145805,8.90208761 L36.5608319,8.07381179 C37.4046551,7.20080174 38.6042936,6.65539102 39.9352374,6.65539102 C41.2776045,6.65539102 42.4864028,7.21020436 43.3312916,8.09636302 Z M45.0360051,6.4376539 L44.1837436,7.26691577 C43.1201193,6.16988903 41.6101378,5.48485508 39.9352374,5.48485508 C38.2711211,5.48485508 36.7698068,6.16109602 35.7073316,7.24577692 L34.8539518,6.41785901 C36.1349713,5.12145454 37.9379472,4.31431913 39.9352374,4.31431913 C41.9426738,4.31431913 43.7538166,5.1296758 45.0360051,6.4376539 Z" id="Wi-Fi"></path>
                            <path d="M7.24492256,10.1974816 C6.05535871,10.1974816 5.09102667,9.23168834 5.09102667,8.04032201 C5.09102667,6.84895568 6.05535871,5.88316245 7.24492256,5.88316245 C8.43448642,5.88316245 9.39881846,6.84895568 9.39881846,8.04032201 C9.39881846,9.23168834 8.43448642,10.1974816 7.24492256,10.1974816 Z M12.7275667,10.1974816 C11.5380028,10.1974816 10.5736708,9.23168834 10.5736708,8.04032201 C10.5736708,6.84895568 11.5380028,5.88316245 12.7275667,5.88316245 C13.9171305,5.88316245 14.8814626,6.84895568 14.8814626,8.04032201 C14.8814626,9.23168834 13.9171305,10.1974816 12.7275667,10.1974816 Z M18.2102108,10.1974816 C17.0206469,10.1974816 16.0563149,9.23168834 16.0563149,8.04032201 C16.0563149,6.84895568 17.0206469,5.88316245 18.2102108,5.88316245 C19.3997746,5.88316245 20.3641067,6.84895568 20.3641067,8.04032201 C20.3641067,9.23168834 19.3997746,10.1974816 18.2102108,10.1974816 Z M23.6928549,10.1974816 C22.503291,10.1974816 21.538959,9.23168834 21.538959,8.04032201 C21.538959,6.84895568 22.503291,5.88316245 23.6928549,5.88316245 C24.8824187,5.88316245 25.8467508,6.84895568 25.8467508,8.04032201 C25.8467508,9.23168834 24.8824187,10.1974816 23.6928549,10.1974816 Z M29.175499,10.1974816 C27.9859351,10.1974816 27.0216031,9.23168834 27.0216031,8.04032201 C27.0216031,6.84895568 27.9859351,5.88316245 29.175499,5.88316245 C30.3650628,5.88316245 31.3293949,6.84895568 31.3293949,8.04032201 C31.3293949,9.23168834 30.3650628,10.1974816 29.175499,10.1974816 Z" id="Mobile-Signal"></path>
                        </g>
                    </g>
                </g>
            </g>
        </g>
    </g>
</svg>