<svg xmlns="http://www.w3.org/2000/svg" width="18" height="17" viewBox="0 0 18 17">
    <g fill="none" fill-rule="evenodd" transform="translate(.424 -.398)">
        <path stroke="#999CA1" stroke-width=".784" d="M2.862 16.485C1.748 15.233.884 11.799.835 8.814c.003-.188.003-.41.003-.676C.838 4.122 4.346.9 8.682.958l.447.007c4.21.057 7.854 3.51 7.854 7.173.36 3.767-2.813 6.635-7.15 6.448a89.475 89.475 0 0 0-2.39-.114c-1.058-.032-1.827-.026-2.221.034-.296.045-.602.204-.927.457-.256.199-.52.453-.792.75-.224.247-.44.51-.64.772z"/>
        <ellipse cx="9.41" cy="7.838" fill="#999CA1" rx="1" ry="1"/>
        <ellipse cx="6.274" cy="7.838" fill="#999CA1" rx="1" ry="1"/>
        <ellipse cx="12.547" cy="7.838" fill="#999CA1" rx="1" ry="1"/>
    </g>
</svg>
