<svg xmlns="http://www.w3.org/2000/svg" width="23" height="20" viewBox="0 0 23 20">
    <path fill="#858E98" fill-rule="evenodd" d="M18.501 14.426c-.308.285-.625.562-.95.831l-4.784-4.785a2.353 2.353 0 0 0-3.326.002 2.346 2.346 0 0 0-.001 3.325l4.236 4.237c-.233.15-.465.298-.696.443-.41.26-.824.516-1.248.753 0 0-.854-.494-1.265-.753-2.862-1.805-5.94-3.931-7.905-6.763-1.721-2.48-2.71-6.429-.723-9.07C3.015 1.08 4.97.286 6.886.464c1.775.165 3.4 1.221 4.845 2.209C13.484 1.51 15.278.255 17.475.427c1.573.124 3.166.933 4.133 2.218 1.77 2.354 1.2 5.573-.145 8.088l-5.528-5.528a2.353 2.353 0 0 0-3.326.001 2.346 2.346 0 0 0-.002 3.326l5.894 5.894zM12.403 12.1c.114.857-.491 1.459-1.345 1.345l-.606-.08c-.857-.114-1.276-.848-.936-1.642l-.03.07c.174-.406.637-.89 1.023-1.075l.194-.094c.781-.376 1.507.016 1.62.87l.08.606zm3.14-5.333c.114.857-.491 1.459-1.345 1.346l-.606-.081c-.857-.114-1.276-.848-.936-1.642l-.03.07c.174-.405.637-.89 1.022-1.075l.195-.094c.78-.376 1.506.016 1.62.87l.08.606z"/>
</svg>
