<svg xmlns="http://www.w3.org/2000/svg" width="27" height="21" viewBox="0 0 27 21">
    <path fill="#858E98" fill-rule="evenodd" d="M.128 10.43C.128 5.016 4.52.627 9.933.627h7.078c5.415 0 9.805 4.388 9.805 9.803 0 5.413-4.392 9.802-9.805 9.802H9.933c-5.415 0-9.805-4.387-9.805-9.802zm8.634-.392H6.407v1.447h1.531l.824-1.447zm10.354 1.447h1.42v-1.447h-2.24l.82 1.447zm-7.207-1.447l-.821 1.447h4.739l-.817-1.447h-3.1zm7.58 3.15s-.265-.356-.657-.415l-1.056.623s-.464.878 1.162 1.979c.286.194.41.39.517.711.04.123.133.293.275.197.19-.126.173-.52.198-.728.033-.276.052-.555.049-.833a3.393 3.393 0 0 0-.107-.868c-.076-.275-.206-.454-.38-.666zM6.672 16.07c-.038.135.122.235.222.138l1.9-1.769-1.443-.844-.68 2.475zm4.155-8.645l-3.29 5.834 1.443.84 3.29-5.833-1.443-.84zm2.194-.518a.544.544 0 0 0-.196-.73l-.534-.311a.518.518 0 0 0-.713.2l-.507.987 1.442.84.508-.986zm1.182-2.876a.518.518 0 0 0-.715-.196l-.531.316a.545.545 0 0 0-.191.732l3.782 6.704 1.436-.851-3.781-6.705zm4.055 7.193l-1.437.844.565 1.011 1.435-.854-.563-1z"/>
</svg>
