<svg xmlns="http://www.w3.org/2000/svg" width="19" height="18" viewBox="0 0 19 18">
    <path fill="#0076FF" fill-rule="evenodd" d="M9.605.098C4.837.098.971 3.96.971 8.724c0 4.764 3.866 8.627 8.634 8.627 4.769 0 8.635-3.863 8.635-8.627 0-4.764-3.866-8.626-8.635-8.626zm0 16.468c-4.328 0-7.85-3.518-7.85-7.842S5.278.882 9.606.882c4.329 0 7.85 3.518 7.85 7.842s-3.521 7.842-7.85 7.842zM8.624 4.607a.98.98 0 1 1 1.961 0 .98.98 0 0 1-1.961 0zm1.766 8.43h.785v.393h-3.14v-.392h.785V7.156h-.785v-.392h2.355v6.274z"/>
</svg>
