<svg xmlns="http://www.w3.org/2000/svg" width="23" height="18" viewBox="0 0 23 18">
    <path fill="#858E98" fill-rule="evenodd" d="M17.5 5.791h-.01c-.24 0-.435-.206-.435-.461v-.01c0-.255.195-.461.435-.461h.01c.24 0 .434.206.434.461v.01c0 .255-.194.461-.435.461zm-6.16 8.393c-2.184 0-3.956-1.879-3.956-4.196 0-2.318 1.772-4.197 3.957-4.197 2.185 0 3.956 1.879 3.956 4.197 0 2.317-1.771 4.196-3.956 4.196zm9.671-11.19h-3.925a.866.866 0 0 1-.731-.416L15.118.611a.867.867 0 0 0-.731-.416H8.295a.867.867 0 0 0-.732.416L6.327 2.578a.866.866 0 0 1-.731.415H1.67C.94 2.993.35 3.62.35 4.393v11.656c0 .773.59 1.4 1.319 1.4H21.01c.729 0 1.32-.627 1.32-1.4V4.392c0-.772-.591-1.399-1.32-1.399zm-9.67 12.589c-2.91 0-5.275-2.51-5.275-5.595s2.366-5.596 5.275-5.596c2.908 0 5.275 2.51 5.275 5.596 0 3.085-2.367 5.595-5.275 5.595zM2.989 1.128h1.758v.933H2.989v-.933z"/>
</svg>
