<svg xmlns="http://www.w3.org/2000/svg" width="22" height="22" viewBox="0 0 22 22">
    <g fill="none" fill-rule="evenodd" transform="translate(.906 .627)">
        <ellipse cx="10.205" cy="10.195" fill="#858E98" rx="10.205" ry="10.195"/>
        <path fill="#F7F7F7" d="M10.205 12.94a2.354 2.354 0 0 1-2.355-2.353V5.49a2.354 2.354 0 1 1 4.71 0v5.097c0 1.3-1.055 2.353-2.355 2.353zm3.14-4.706h.784v2.353h-.003c0 2.027-1.55 3.7-3.529 3.897v1.985h2.355v.784H7.457v-.784h2.355v-1.985a3.924 3.924 0 0 1-3.529-3.897H6.28V8.234h.785v2.353H7.06a3.144 3.144 0 0 0 3.072 3.137h.143a3.144 3.144 0 0 0 3.072-3.137h-.004V8.234z"/>
    </g>
</svg>
